<svg class="animated" id="freepik_stories-connected" xmlns="http://www.w3.org/2000/svg" xmlns:xlink="http://www.w3.org/1999/xlink" viewBox="0 0 500 500" version="1.1" xmlns:svgjs="http://svgjs.com/svgjs"><style>svg#freepik_stories-connected:not(.animated) .animable {opacity: 0;}svg#freepik_stories-connected.animated #freepik--Characters--inject-66 {animation: 6s Infinite  linear floating;animation-delay: 0s;}            @keyframes floating {                0% {                    opacity: 1;                    transform: translateY(0px);                }                50% {                    transform: translateY(-10px);                }                100% {                    opacity: 1;                    transform: translateY(0px);                }            }        .animator-hidden { display: none; }</style><g id="freepik--background-complete--inject-66" class="animable animator-hidden" style="transform-origin: 250px 227.66px;"><rect y="382.4" width="500" height="0.25" style="fill: rgb(235, 235, 235); transform-origin: 250px 382.525px;" id="el2lwewc234rf" class="animable"></rect><rect x="78.54" y="390.79" width="33.12" height="0.25" style="fill: rgb(235, 235, 235); transform-origin: 95.1px 390.915px;" id="elxxlnsnacff" class="animable"></rect><rect x="133.33" y="398" width="30.17" height="0.25" style="fill: rgb(235, 235, 235); transform-origin: 148.415px 398.125px;" id="eli7te3oku3tr" class="animable"></rect><rect x="56.85" y="400.07" width="38.25" height="0.25" style="fill: rgb(235, 235, 235); transform-origin: 75.975px 400.195px;" id="elvkt9f9wnt6q" class="animable"></rect><rect x="434" y="399.53" width="15.9" height="0.25" style="fill: rgb(235, 235, 235); transform-origin: 441.95px 399.655px;" id="elnidj4jvznsm" class="animable"></rect><rect x="391.47" y="399.53" width="39.32" height="0.25" style="fill: rgb(235, 235, 235); transform-origin: 411.13px 399.655px;" id="eldx3vpnn50qj" class="animable"></rect><rect x="250" y="390.66" width="30.33" height="0.25" style="fill: rgb(235, 235, 235); transform-origin: 265.165px 390.785px;" id="elpzxsdvzv49g" class="animable"></rect><rect x="284.67" y="390.66" width="72.1" height="0.25" style="fill: rgb(235, 235, 235); transform-origin: 320.72px 390.785px;" id="el7nfjsho636t" class="animable"></rect><path d="M237,337.8H43.91a5.71,5.71,0,0,1-5.7-5.71V60.66A5.71,5.71,0,0,1,43.91,55H237a5.71,5.71,0,0,1,5.71,5.71V332.09A5.71,5.71,0,0,1,237,337.8ZM43.91,55.2a5.46,5.46,0,0,0-5.45,5.46V332.09a5.46,5.46,0,0,0,5.45,5.46H237a5.47,5.47,0,0,0,5.46-5.46V60.66A5.47,5.47,0,0,0,237,55.2Z" style="fill: rgb(235, 235, 235); transform-origin: 140.46px 196.4px;" id="el5aigetaivi7" class="animable"></path><path d="M453.31,337.8H260.21a5.72,5.72,0,0,1-5.71-5.71V60.66A5.72,5.72,0,0,1,260.21,55h193.1A5.71,5.71,0,0,1,459,60.66V332.09A5.71,5.71,0,0,1,453.31,337.8ZM260.21,55.2a5.47,5.47,0,0,0-5.46,5.46V332.09a5.47,5.47,0,0,0,5.46,5.46h193.1a5.47,5.47,0,0,0,5.46-5.46V60.66a5.47,5.47,0,0,0-5.46-5.46Z" style="fill: rgb(235, 235, 235); transform-origin: 356.75px 196.4px;" id="elah1p0dlqh9u" class="animable"></path><path d="M200.59,77.6H85.5A14.66,14.66,0,0,0,70.88,92.22v18.91a2.63,2.63,0,0,0-1.83,2.48v31.83a2.62,2.62,0,0,0,1.83,2.48v10.83a2,2,0,0,0-1.83,1.95v17a2,2,0,0,0,1.83,1.95V367.78A14.66,14.66,0,0,0,85.5,382.4H200.59a14.66,14.66,0,0,0,14.61-14.62V92.22A14.66,14.66,0,0,0,200.59,77.6Z" style="fill: rgb(224, 224, 224); transform-origin: 142.125px 230px;" id="elyb48q8jaa0g" class="animable"></path><g id="eln6vj6nikqz"><rect x="75.89" y="77.6" width="144.32" height="304.79" rx="14.62" style="fill: rgb(235, 235, 235); transform-origin: 148.05px 229.995px; transform: rotate(180deg);" class="animable"></rect></g><path d="M141.54,368.44a6.51,6.51,0,1,0,6.51-6.5A6.51,6.51,0,0,0,141.54,368.44Z" style="fill: rgb(224, 224, 224); transform-origin: 148.05px 368.45px;" id="eljzwl2prvtya" class="animable"></path><g id="elmol9jjiwvil"><rect x="75.89" y="94.4" width="144.32" height="261.93" style="fill: rgb(250, 250, 250); transform-origin: 148.05px 225.365px; transform: rotate(180deg);" class="animable"></rect></g><path d="M184,255.89H112.81a13.68,13.68,0,0,0-13.63,13.62v36.78a13.68,13.68,0,0,0,13.63,13.62h52.26l-.39,12.87,13.2-12.87H184a13.67,13.67,0,0,0,13.62-13.62V269.51A13.67,13.67,0,0,0,184,255.89Zm-72.84,15.67a3.82,3.82,0,0,1,3.81-3.81h16.39a3.79,3.79,0,0,1,0,7.58H115A3.81,3.81,0,0,1,111.19,271.56ZM180,307.15H151.63a3.77,3.77,0,0,1,0-7.53H180a3.77,3.77,0,0,1,0,7.53Zm0-15.91H118.81a3.77,3.77,0,0,1,0-7.53H180a3.77,3.77,0,0,1,0,7.53Zm0-15.91H143.77a3.79,3.79,0,0,1,0-7.58H180a3.79,3.79,0,0,1,0,7.58Z" style="fill: rgb(230, 230, 230); transform-origin: 148.4px 294.335px;" id="elkv81mplqzs" class="animable"></path><path d="M147.87,128a40.78,40.78,0,0,0-9.31,80.48l9.31,11.85,9.31-11.85h0A40.78,40.78,0,0,0,147.87,128Zm0,57.77a17,17,0,1,1,17-17A17,17,0,0,1,147.87,185.77Z" style="fill: rgb(230, 230, 230); transform-origin: 147.87px 174.165px;" id="elacr7yrd1zjl" class="animable"></path><path d="M164.61,85.33a2.3,2.3,0,1,0-2.3,2.31A2.3,2.3,0,0,0,164.61,85.33Z" style="fill: rgb(224, 224, 224); transform-origin: 162.31px 85.34px;" id="el8wqr7slcz1s" class="animable"></path><path d="M154.36,83H135.25a2.31,2.31,0,0,0-2.3,2.3h0a2.31,2.31,0,0,0,2.3,2.31h19.11a2.31,2.31,0,0,0,2.3-2.31h0A2.31,2.31,0,0,0,154.36,83Z" style="fill: rgb(224, 224, 224); transform-origin: 144.805px 85.305px;" id="el8dmuyvrb9y" class="animable"></path><g id="elnc739kd6fd"><rect x="273.6" y="75.83" width="169.33" height="306.57" rx="12" style="fill: rgb(224, 224, 224); transform-origin: 358.265px 229.115px; transform: rotate(180deg);" class="animable"></rect></g><g id="elcxcck511etw"><rect x="270.51" y="75.83" width="169.33" height="306.57" rx="12" style="fill: rgb(235, 235, 235); transform-origin: 355.175px 229.115px; transform: rotate(180deg);" class="animable"></rect></g><g id="el3z4dkxx10lf"><rect x="213.18" y="155.73" width="284" height="153.33" rx="4" style="fill: rgb(250, 250, 250); transform-origin: 355.18px 232.395px; transform: rotate(90deg);" class="animable"></rect></g><path d="M381.76,242.26a22.44,22.44,0,0,0-17.87,8.83l-21.06-12.64a22.5,22.5,0,0,0,0-18.68l21.06-12.64a22.48,22.48,0,1,0-4.62-13.65,22.23,22.23,0,0,0,2,9.34l-21.07,12.64a22.49,22.49,0,1,0,0,27.3l21.07,12.64a22.48,22.48,0,1,0,20.45-13.14Z" style="fill: rgb(230, 230, 230); transform-origin: 352.033px 229.109px;" id="elf8dj7li6kac" class="animable"></path><circle cx="355.18" cy="83.59" r="3.82" style="fill: rgb(255, 255, 255); transform-origin: 355.18px 83.59px;" id="eln3uf3i2i24" class="animable"></circle></g><g id="freepik--Shadow--inject-66" class="animable animator-hidden" style="transform-origin: 250px 416.24px;"><ellipse id="freepik--path--inject-66" cx="250" cy="416.24" rx="193.89" ry="11.32" style="fill: rgb(245, 245, 245); transform-origin: 250px 416.24px;" class="animable"></ellipse></g><g id="freepik--Characters--inject-66" class="animable animator-active" style="transform-origin: 237.29px 222.72px;"><path d="M323.65,314.68a10,10,0,0,1-4.3-1L146.61,231.35a10,10,0,0,1,0-18L319.35,131A10,10,0,0,1,328,149L174.15,222.33,328,295.65a10,10,0,0,1-4.31,19Z" style="fill: rgb(1, 83, 103); transform-origin: 237.305px 222.458px;" id="elalewfcaafz" class="animable"></path><path d="M376.43,191.09l-.72-.7a72.36,72.36,0,0,0,8-9.78l.83.56A73.78,73.78,0,0,1,376.43,191.09Z" style="fill: rgb(1, 83, 103); transform-origin: 380.125px 185.85px;" id="el87rvpifourk" class="animable"></path><circle cx="323.66" cy="139.98" r="70" style="fill: rgb(1, 83, 103); transform-origin: 323.66px 139.98px;" id="elpp1xqeby2k" class="animable"></circle><circle cx="323.66" cy="139.98" r="54.82" style="fill: rgb(255, 255, 255); transform-origin: 323.66px 139.98px;" id="el7rnjxbazsuh" class="animable"></circle><g style="clip-path: url(&quot;#freepik--clip-path--inject-66&quot;); transform-origin: 309.893px 162.327px;" id="eldlf0dc9a0i" class="animable"><path d="M325.13,170.73s19.67,4.1,30.37,2.44,9.46-16,1-23.17-6.5-5.5-4.5-13-2.5-13.5-11-13.83-.28-11-9-22.92-24.26-2.92-25.38,2.42c-4.88.16-10,8.11-6.35,15.3s-1,9.07-3.86,17.72,8.57,10.31,6,16.14S299.63,177,325.13,170.73Z" style="fill: rgb(38, 50, 56); transform-origin: 329.566px 133.964px;" id="elnxhq2dkw3ud" class="animable"></path><path d="M306,155.91c-.18,3-.53,5.81-.93,8.69s-.94,5.69-1.56,8.52-1.3,5.65-2.19,8.43a77,77,0,0,1-3,8.29l-.92,2c-.13.31-.37.76-.57,1.14s-.43.74-.65,1.11a31.85,31.85,0,0,1-2.84,3.8,65.87,65.87,0,0,1-6.24,6.26,115.74,115.74,0,0,1-13.67,10.35L270.67,211c1.95-1.89,3.94-3.85,5.87-5.8s3.83-3.93,5.63-6a75.56,75.56,0,0,0,5-6.12,27.75,27.75,0,0,0,2-3.07c.12-.25.26-.5.36-.73s.19-.41.32-.75l.69-1.83a102.73,102.73,0,0,0,4.14-15.41c.53-2.64.9-5.32,1.3-8s.69-5.42.93-8Z" style="fill: rgb(255, 181, 115); transform-origin: 288.335px 184.895px;" id="elex8p861zie" class="animable"></path><path d="M299.8,145c-3.69.94-6.27,16.13-6.27,16.13L303.7,168s9.75-15.32,6.91-19.38C307.66,144.43,305.19,143.62,299.8,145Z" style="fill: rgb(1, 83, 103); transform-origin: 302.329px 156.19px;" id="elhz1mr5v3ux" class="animable"></path><g id="el51ay9cktita"><path d="M299.8,145c-3.69.94-6.27,16.13-6.27,16.13L303.7,168s9.75-15.32,6.91-19.38C307.66,144.43,305.19,143.62,299.8,145Z" style="fill: rgb(255, 255, 255); opacity: 0.2; transform-origin: 302.329px 156.19px;" class="animable"></path></g><g id="el8cp47w3d0dc"><polygon points="300.14 148.39 297.3 163.7 303.02 167.57 300.14 148.39" style="opacity: 0.2; transform-origin: 300.16px 157.98px;" class="animable"></polygon></g><path d="M272.35,209.65l-10.14.73,6.06,6.8s5.6-1.28,6.58-4.87Z" style="fill: rgb(255, 181, 115); transform-origin: 268.53px 213.415px;" id="elfdy8f1l087q" class="animable"></path><polygon points="256.6 213.98 260.76 220.38 268.26 217.18 262.21 210.38 256.6 213.98" style="fill: rgb(255, 181, 115); transform-origin: 262.43px 215.38px;" id="eldd9r3ef1lb4" class="animable"></polygon><path d="M299.8,145s-4.26,1.5,4.28,54.05h36.38c-.61-14.81-.63-23.93,6.44-54.31a107.39,107.39,0,0,0-15.44-2,116.64,116.64,0,0,0-16.52,0C307.85,143.35,299.8,145,299.8,145Z" style="fill: rgb(1, 83, 103); transform-origin: 322.819px 170.749px;" id="elj16nw99qot" class="animable"></path><g id="elvs8jt5rk9d"><path d="M299.8,145s-4.26,1.5,4.28,54.05h36.38c-.61-14.81-.63-23.93,6.44-54.31a107.39,107.39,0,0,0-15.44-2,116.64,116.64,0,0,0-16.52,0C307.85,143.35,299.8,145,299.8,145Z" style="fill: rgb(255, 255, 255); opacity: 0.2; transform-origin: 322.819px 170.749px;" class="animable"></path></g><path d="M329.82,124.1c-1,5.32-2.08,15.06,1.64,18.6,0,0-1.46,5.39-11.33,5.39-10.86,0-5.19-5.39-5.19-5.39,5.93-1.41,5.77-5.81,4.74-9.94Z" style="fill: rgb(255, 181, 115); transform-origin: 322.46px 136.095px;" id="eleo9nztusx0i" class="animable"></path><path d="M331.45,142.71a113.6,113.6,0,0,0-16.51,0l-1.08.1c-2.22,2.59.51,5.87,2.82,8.2,0,0,13.18-2,16.95-8.16C332.91,142.79,332.18,142.74,331.45,142.71Z" style="fill: rgb(255, 181, 115); transform-origin: 323.334px 146.71px;" id="eltl5v1ptvuai" class="animable"></path><g id="elp53o0q1zazo"><path d="M325.69,127.64l-6,5.12a17.82,17.82,0,0,1,.51,2.93c2.73,0,5.11-1.91,6.07-5.06C326.61,129.5,325.88,128.19,325.69,127.64Z" style="opacity: 0.2; transform-origin: 323.025px 131.665px;" class="animable"></path></g><path d="M330.12,110c1.88,8.69,2.87,12.32-.21,17.92-4.63,8.42-15.71,8.83-20.15.88-4-7.15-6.4-20.16,1-25.91A12.12,12.12,0,0,1,330.12,110Z" style="fill: rgb(255, 181, 115); transform-origin: 318.928px 117.406px;" id="elu85fiugefae" class="animable"></path><path d="M317.14,116.07c.2.7,0,1.37-.46,1.5s-1-.34-1.18-1,0-1.36.47-1.49S317,115.38,317.14,116.07Z" style="fill: rgb(38, 50, 56); transform-origin: 316.324px 116.324px;" id="eld25ma9aot1" class="animable"></path><path d="M309.28,118.29c.2.69,0,1.36-.46,1.49s-1-.33-1.18-1,0-1.36.47-1.49S309.09,117.59,309.28,118.29Z" style="fill: rgb(38, 50, 56); transform-origin: 308.464px 118.534px;" id="elkjecf2i244m" class="animable"></path><path d="M308.32,117.24h-1.81S307.74,118.3,308.32,117.24Z" style="fill: rgb(38, 50, 56); transform-origin: 307.415px 117.476px;" id="eltq2785iuh7c" class="animable"></path><path d="M312.06,118.86a19.38,19.38,0,0,1-1.23,5.13,3.1,3.1,0,0,0,2.61-.23Z" style="fill: rgb(237, 137, 62); transform-origin: 312.135px 121.518px;" id="el7hs82q8qitv" class="animable"></path><path d="M318,125.42a6.91,6.91,0,0,1-1,.36.21.21,0,0,1-.12-.41,5.73,5.73,0,0,0,3.89-3.42.2.2,0,0,1,.26-.13.2.2,0,0,1,.14.26A6,6,0,0,1,318,125.42Z" style="fill: rgb(38, 50, 56); transform-origin: 318.954px 123.798px;" id="elpsg8en3s8a" class="animable"></path><path d="M308.46,104c-1.9,2.17,18.78,13.3,23,11.3s.42-13.14-4.91-15.55S314.21,97.42,308.46,104Z" style="fill: rgb(38, 50, 56); transform-origin: 320.802px 106.92px;" id="elqi720v80go9" class="animable"></path><path d="M334.64,117.15a6.52,6.52,0,0,1-2.27,4.41c-1.75,1.46-3.56.11-3.85-2-.26-1.93.33-5,2.46-5.64A2.92,2.92,0,0,1,334.64,117.15Z" style="fill: rgb(255, 181, 115); transform-origin: 331.566px 117.994px;" id="el6pc5lk0oa5o" class="animable"></path><path d="M319.85,113.58a.43.43,0,0,1-.49-.09c-1.33-1.45-3.84-1.14-3.86-1.14A.43.43,0,0,1,315,112a.42.42,0,0,1,.37-.47c.12,0,3-.36,4.59,1.4a.43.43,0,0,1,0,.6A.34.34,0,0,1,319.85,113.58Z" style="fill: rgb(38, 50, 56); transform-origin: 317.539px 112.56px;" id="elb6kvmukoa6u" class="animable"></path><path d="M305.9,115.32a.45.45,0,0,1-.42,0,.42.42,0,0,1-.1-.59,4.16,4.16,0,0,1,3.37-1.89.42.42,0,0,1,.42.43.42.42,0,0,1-.44.41,3.38,3.38,0,0,0-2.66,1.53A.39.39,0,0,1,305.9,115.32Z" style="fill: rgb(38, 50, 56); transform-origin: 307.235px 114.106px;" id="elf7ss560nv45" class="animable"></path><path d="M350.83,154.31A140.18,140.18,0,0,1,356.22,170a90.22,90.22,0,0,1,3.24,16.59c.06.73.08,1.47.12,2.21l0,.55c0,.19,0,.34,0,.63l0,.77-.07.68a26.08,26.08,0,0,1-1,4.6,73.31,73.31,0,0,1-3,7.91,138.79,138.79,0,0,1-7.58,14.58l-4.1-1.94c1.75-5,3.51-10.12,5.08-15.13.77-2.5,1.5-5,2-7.43a20.9,20.9,0,0,0,.49-3.31v-.33l0-.24s0-.23,0-.38l-.05-.45c-.07-.61-.12-1.2-.21-1.82a103.68,103.68,0,0,0-3.57-14.94c-1.54-5-3.31-10-5.14-14.81Z" style="fill: rgb(255, 181, 115); transform-origin: 351.005px 186.415px;" id="eljdwoonqqd1" class="animable"></path><path d="M346.9,144.74c3.65,1.1,8,13.65,8,13.65L340.79,168.5s-5.16-10.47-3.63-15.18C338.76,148.41,342.74,143.47,346.9,144.74Z" style="fill: rgb(1, 83, 103); transform-origin: 345.888px 156.519px;" id="eloimrttfa63b" class="animable"></path><g id="el3bj6d11pdak"><path d="M346.9,144.74c3.65,1.1,8,13.65,8,13.65L340.79,168.5s-5.16-10.47-3.63-15.18C338.76,148.41,342.74,143.47,346.9,144.74Z" style="fill: rgb(255, 255, 255); opacity: 0.2; transform-origin: 345.888px 156.519px;" class="animable"></path></g><path d="M316.18,115h-1.81S315.6,116.08,316.18,115Z" style="fill: rgb(38, 50, 56); transform-origin: 315.275px 115.24px;" id="el95lq6o4j8xb" class="animable"></path><path d="M341,196.91l.93,3.26c.13.25-.17.51-.59.51H303.9c-.32,0-.6-.16-.62-.37l-.33-3.25c0-.23.27-.42.63-.42h36.83A.66.66,0,0,1,341,196.91Z" style="fill: rgb(38, 50, 56); transform-origin: 322.455px 198.659px;" id="el3uvsgxdze6k" class="animable"></path><path d="M336.05,201h1c.2,0,.35-.1.33-.22l-.46-4.23c0-.13-.19-.23-.38-.23h-1c-.19,0-.34.1-.33.23l.46,4.23C335.68,200.93,335.86,201,336.05,201Z" style="fill: rgb(1, 83, 103); transform-origin: 336.296px 198.66px;" id="el30fhcute11j" class="animable"></path><path d="M306.68,201h1c.2,0,.35-.1.33-.22l-.46-4.23c0-.13-.18-.23-.38-.23h-1c-.19,0-.34.1-.33.23l.46,4.23C306.31,200.93,306.48,201,306.68,201Z" style="fill: rgb(1, 83, 103); transform-origin: 306.926px 198.66px;" id="elunii087povr" class="animable"></path><path d="M321.36,201h1c.2,0,.35-.1.33-.22l-.46-4.23c0-.13-.18-.23-.38-.23h-1c-.19,0-.34.1-.33.23l.46,4.23C321,200.93,321.17,201,321.36,201Z" style="fill: rgb(1, 83, 103); transform-origin: 321.606px 198.66px;" id="elnas3cna2or8" class="animable"></path><path d="M343.92,215.75l-7,6.68,9.05,1s3.3-4.71,1.62-8Z" style="fill: rgb(255, 181, 115); transform-origin: 342.493px 219.43px;" id="elcsphuzvszkt" class="animable"></path><polygon points="335.84 229.88 343.47 230.29 345.98 223.41 336.93 222.43 335.84 229.88" style="fill: rgb(255, 181, 115); transform-origin: 340.91px 226.36px;" id="el4u4qpeogvjp" class="animable"></polygon></g><path d="M101.69,169.15l-.68-.74a73.93,73.93,0,0,1,16.52-11.56l.46.89A72.77,72.77,0,0,0,101.69,169.15Z" style="fill: rgb(1, 83, 103); transform-origin: 109.5px 163px;" id="eldadboecm7ac" class="animable"></path><path d="M94,177.44l-.78-.62c1.23-1.56,2.54-3.09,3.9-4.54l.73.68C96.53,174.39,95.24,175.9,94,177.44Z" style="fill: rgb(1, 83, 103); transform-origin: 95.535px 174.86px;" id="elas75ogdfpc5" class="animable"></path><circle cx="150.92" cy="222.33" r="70" style="fill: rgb(1, 83, 103); transform-origin: 150.92px 222.33px;" id="el2si33vzvype" class="animable"></circle><circle cx="150.92" cy="222.33" r="54.82" style="fill: rgb(255, 255, 255); transform-origin: 150.92px 222.33px;" id="elagslsd18xyj" class="animable"></circle><g style="clip-path: url(&quot;#freepik--clip-path-2--inject-66&quot;); transform-origin: 173.4px 239.935px;" id="el7mxtdguagvb" class="animable"><path d="M175.64,237.19c2.58,6,5.25,12,7.94,18q2,4.49,4.11,8.9t4.3,8.68c.75,1.39,1.48,2.83,2.27,4.15l.59,1,.29.5a.47.47,0,0,0-.11-.1c-.13-.08,0,.07.26.25a9.77,9.77,0,0,0,3.15,1.06,36.68,36.68,0,0,0,4.31.55c3,.21,6.23.21,9.44.11l4.85-.2,4.83-.32,1.25,5.82a83.35,83.35,0,0,1-20.4,4.08,37.82,37.82,0,0,1-5.62-.05,20.35,20.35,0,0,1-6.43-1.52,11.22,11.22,0,0,1-3.74-2.65,9.45,9.45,0,0,1-.87-1.09l-.37-.55-.73-1.11c-1-1.48-1.87-3-2.78-4.44-3.48-5.94-6.57-11.94-9.48-18s-5.61-12.17-8.16-18.45Z" style="fill: rgb(127, 62, 59); transform-origin: 193.83px 263.47px;" id="eldwe29c5p5yq" class="animable"></path><path d="M161.43,236.37c-2.43,7.09,11.83,28,11.83,28l13.67-7.57a160.31,160.31,0,0,0-8.21-19C173.9,228.72,164.09,228.59,161.43,236.37Z" style="fill: rgb(1, 83, 103); transform-origin: 174.041px 247.559px;" id="elw57th3ap8k" class="animable"></path><g id="el37d558cjywt"><path d="M161.43,236.37c-2.43,7.09,11.83,28,11.83,28l13.67-7.57a160.31,160.31,0,0,0-8.21-19C173.9,228.72,164.09,228.59,161.43,236.37Z" style="opacity: 0.5; transform-origin: 174.041px 247.559px;" class="animable"></path></g><g id="el4ku2wqrqnyb"><path d="M161.22,237.27c3.06-1.47,6.58-.24,10.29,5.61s6.87,15.65,7.21,18.45l-5.46,3S160.09,245.06,161.22,237.27Z" style="opacity: 0.2; transform-origin: 169.936px 250.517px;" class="animable"></path></g><path d="M220.14,280.13l7.29-2.88,1.77,7.46s-8.31,2.48-9.59.09Z" style="fill: rgb(127, 62, 59); transform-origin: 224.405px 281.545px;" id="elytj8a0746bs" class="animable"></path><polygon points="233.59 278.75 235.73 282.85 229.2 284.71 227.43 277.25 233.59 278.75" style="fill: rgb(127, 62, 59); transform-origin: 231.58px 280.98px;" id="elbd085u9yu1c" class="animable"></polygon><path d="M170.65,230.94s10.19,23.94,2.85,68.52H131.1c-.52-6.5,2.47-38.26-4.87-68.92a109.38,109.38,0,0,1,14.13-1.8,156.89,156.89,0,0,1,18,0A82.12,82.12,0,0,1,170.65,230.94Z" style="fill: rgb(1, 83, 103); transform-origin: 151.194px 263.971px;" id="elgio3lxrlo38" class="animable"></path><g id="elvqixeykfwkd"><path d="M170.65,230.94s10.19,23.94,2.85,68.52H131.1c-.52-6.5,2.47-38.26-4.87-68.92a109.38,109.38,0,0,1,14.13-1.8,156.89,156.89,0,0,1,18,0A82.12,82.12,0,0,1,170.65,230.94Z" style="opacity: 0.5; transform-origin: 151.194px 263.971px;" class="animable"></path></g><polygon points="158.56 261.57 149.45 251.82 156.1 242.04 165.2 251.79 158.56 261.57" style="fill: rgb(255, 255, 255); transform-origin: 157.325px 251.805px;" id="el1z67csv0uf7" class="animable"></polygon><g id="elcnh9bv8ptr"><path d="M135.7,238.11c.88,5-.29,17.12-4.62,31.08a202.86,202.86,0,0,0-4.16-35.6v-.06C129.7,233.24,134.86,233.38,135.7,238.11Z" style="opacity: 0.2; transform-origin: 131.447px 251.315px;" class="animable"></path></g><path d="M141.44,208.45c1.34,5.8,2.84,16.42-1.08,20.29,0,0,2.48,5.85,13.25,5.87,8.64,0,4.77-5.87,4.77-5.87-6.52-1.54-6.52-6.34-5.55-10.84Z" style="fill: rgb(127, 62, 59); transform-origin: 149.802px 221.53px;" id="elj8pnxkgn8s" class="animable"></path><g id="elq5dn4egsozn"><path d="M146.08,212.3l6.75,5.59a17.86,17.86,0,0,0-.45,3.2c-2.48-.36-6-3.07-6.32-5.66A8.56,8.56,0,0,1,146.08,212.3Z" style="opacity: 0.2; transform-origin: 149.378px 216.695px;" class="animable"></path></g><path d="M158.35,191.2c3.6,2.33,4.12,13.54-1.15,15.14S151.52,186.79,158.35,191.2Z" style="fill: rgb(38, 50, 56); transform-origin: 157.169px 198.51px;" id="el74oq7j9eh1j" class="animable"></path><path d="M138.9,202.37c2.42,7.51,3.45,12,8.32,15.08a10.26,10.26,0,0,0,15.8-9c-.1-7.2-4-18.27-12.32-19.66A10.38,10.38,0,0,0,138.9,202.37Z" style="fill: rgb(127, 62, 59); transform-origin: 150.678px 203.838px;" id="eld3l7i3hnod" class="animable"></path><path d="M141.63,194.63c4,5.42,4,14.06.88,15s-11.79-9-12.24-14.34c-.36-4.29,2.49-4.29,2.49-4.29s-4.6-2.67.62-5.88c5.89-3.61,20.47-3.26,13.91-8.34,4.75-1.58,6.59,1.45,6.29,3.29,3.5-1.07,3.27-4.87,3.27-4.87s9.3,5.2,5.11,11.26S150.06,194.47,141.63,194.63Z" style="fill: rgb(38, 50, 56); transform-origin: 146.642px 192.446px;" id="el6axrrvmi6h3" class="animable"></path><path d="M137.58,211.52a7.87,7.87,0,0,0,5.37,2.21c2.65,0,3.18-2.5,1.78-4.59-1.25-1.89-4.14-4.15-6.47-3.14S135.83,209.79,137.58,211.52Z" style="fill: rgb(127, 62, 59); transform-origin: 140.929px 209.74px;" id="eldut04t4sc7e" class="animable"></path><path d="M151.08,202c.16.62.62,1.05,1,1s.61-.66.45-1.28-.62-1-1-1S150.93,201.33,151.08,202Z" style="fill: rgb(38, 50, 56); transform-origin: 151.807px 201.862px;" id="elqj4oj3ksklj" class="animable"></path><path d="M158.14,200.41c.16.62.62,1.05,1,1s.61-.67.45-1.28-.61-1.05-1-1S158,199.79,158.14,200.41Z" style="fill: rgb(38, 50, 56); transform-origin: 158.868px 200.27px;" id="elk3999oasmya" class="animable"></path><path d="M156,201.21a24,24,0,0,0,4.34,4.65,3.68,3.68,0,0,1-2.85,1.21Z" style="fill: rgb(99, 15, 15); transform-origin: 158.17px 204.141px;" id="el0hu7ijf36ozl" class="animable"></path><path d="M154.77,209.32a5.38,5.38,0,0,1-3.55-1.28.18.18,0,1,1,.25-.27,5.3,5.3,0,0,0,4.54,1,.18.18,0,0,1,.22.14.2.2,0,0,1-.14.23A6.32,6.32,0,0,1,154.77,209.32Z" style="fill: rgb(38, 50, 56); transform-origin: 153.697px 208.521px;" id="el21efzto8o5rh" class="animable"></path><path d="M148.29,200.17a.4.4,0,0,1-.15,0,.37.37,0,0,1-.2-.49,3.6,3.6,0,0,1,2.61-2.17.38.38,0,0,1,.43.32.37.37,0,0,1-.32.42h0a2.9,2.9,0,0,0-2,1.72A.36.36,0,0,1,148.29,200.17Z" style="fill: rgb(38, 50, 56); transform-origin: 149.447px 198.842px;" id="els49903bo8km" class="animable"></path><path d="M160.53,197.34a.37.37,0,0,1-.29-.14,3.18,3.18,0,0,0-2.5-1.2.37.37,0,0,1-.41-.34.37.37,0,0,1,.34-.41,3.93,3.93,0,0,1,3.15,1.47.38.38,0,0,1-.29.62Z" style="fill: rgb(38, 50, 56); transform-origin: 159.117px 196.295px;" id="elmyccdee9ofg" class="animable"></path><path d="M134.6,242,133,245.51c-.55,1.21-1.08,2.43-1.6,3.66-1.05,2.46-2,4.94-3,7.42s-1.79,5-2.5,7.47c-.38,1.25-.69,2.49-1,3.73l-.41,1.86-.06.23,0,.12s0,0,0,0l0,0s0,0,0,.11a5.67,5.67,0,0,0,.68,2.07,21,21,0,0,0,1.8,2.88,58.23,58.23,0,0,0,5,5.86c3.67,3.82,7.72,7.6,11.78,11.17L140.26,297a96.72,96.72,0,0,1-14.48-9.53,58.38,58.38,0,0,1-6.64-6.15,31.06,31.06,0,0,1-3-3.95,15.45,15.45,0,0,1-2.34-5.66,11.21,11.21,0,0,1-.18-2,10,10,0,0,1,.06-1.08l0-.41,0-.28.3-2.26c.26-1.48.49-3,.84-4.42q1-4.36,2.32-8.54c.89-2.79,1.9-5.52,3-8.21.56-1.34,1.14-2.68,1.74-4s1.22-2.6,2-4Z" style="fill: rgb(127, 62, 59); transform-origin: 128.655px 266.755px;" id="elufcqgg9y3d9" class="animable"></path><path d="M126.23,230.54c-7.47,1.09-15.16,28.56-15.16,28.56l18,6.86s4.54-11.81,7.64-21C140,235.36,134.23,229.37,126.23,230.54Z" style="fill: rgb(1, 83, 103); transform-origin: 124.361px 248.177px;" id="elxl3iaekglx" class="animable"></path><g id="elye2do1o8b4"><path d="M126.23,230.54c-7.47,1.09-15.16,28.56-15.16,28.56l18,6.86s4.54-11.81,7.64-21C140,235.36,134.23,229.37,126.23,230.54Z" style="opacity: 0.5; transform-origin: 124.361px 248.177px;" class="animable"></path></g><path d="M142.36,291.4l7,3.32-4.89,6.68s-6-2.91-4.94-6.47Z" style="fill: rgb(127, 62, 59); transform-origin: 144.382px 296.4px;" id="elmh4rmwilqtc" class="animable"></path><polygon points="153.12 299.98 148.2 304.67 144.45 301.4 149.34 294.72 153.12 299.98" style="fill: rgb(127, 62, 59); transform-origin: 148.785px 299.695px;" id="elaqf59tdt7u8" class="animable"></polygon></g><circle cx="323.66" cy="304.67" r="70" style="fill: rgb(1, 83, 103); transform-origin: 323.66px 304.67px;" id="eldtnkz472np4" class="animable"></circle><circle cx="323.66" cy="304.67" r="54.82" style="fill: rgb(255, 255, 255); transform-origin: 323.66px 304.67px;" id="elnxulw6v5jji" class="animable"></circle><g style="clip-path: url(&quot;#freepik--clip-path-3--inject-66&quot;); transform-origin: 307.305px 317.891px;" id="elvnrcunttwj" class="animable"><path d="M304.33,322.86c-.17,3-.51,5.67-.9,8.49s-.91,5.55-1.5,8.31a92.15,92.15,0,0,1-5,16.35l-.9,2-.22.5-.11.25-.16.32a8.4,8.4,0,0,1-1.16,1.75,6.79,6.79,0,0,1-1.95,1.53,6.59,6.59,0,0,1-2.31.73,8.66,8.66,0,0,1-3.66-.38,17.5,17.5,0,0,1-4.62-2.39,37.35,37.35,0,0,1-3.51-2.83,81.08,81.08,0,0,1-11.1-12.79l3.45-2.91c1.92,1.8,3.93,3.63,5.94,5.36a76.3,76.3,0,0,0,6.13,4.89,30.87,30.87,0,0,0,3.09,2,10.25,10.25,0,0,0,2.73,1.16c.33.06.54,0,.39,0a1.26,1.26,0,0,0-.76.35c-.07.06-.08.07-.07,0l.31-.82.68-1.78a106.77,106.77,0,0,0,4-15.09c.52-2.57.88-5.19,1.27-7.8s.67-5.29.9-7.77Z" style="fill: rgb(255, 139, 123); transform-origin: 285.78px 342.716px;" id="ela6lbglbua3r" class="animable"></path><path d="M298.14,312c-3.67.93-6.24,16-6.24,16L302,334.92s9.69-15.23,6.87-19.27C305.94,311.45,303.49,310.65,298.14,312Z" style="fill: rgb(38, 50, 56); transform-origin: 300.642px 323.159px;" id="el4e88tvt09ub" class="animable"></path><g id="el94tuoe8vyx8"><polygon points="298.47 315.38 295.65 330.6 301.33 334.45 298.47 315.38" style="opacity: 0.2; transform-origin: 298.49px 324.915px;" class="animable"></polygon></g><path d="M270.78,341.21,266,333.62l-2.73,8.63s3.95,4.13,7.51,3.15Z" style="fill: rgb(255, 139, 123); transform-origin: 267.025px 339.585px;" id="eltjfpkdeljun" class="animable"></path><polygon points="258.92 331.1 257.03 338.45 263.24 342.25 265.97 333.62 258.92 331.1" style="fill: rgb(255, 139, 123); transform-origin: 261.5px 336.675px;" id="elaf3uh20eo3e" class="animable"></polygon><path d="M298.14,312s-4.24,1.49,4.25,53.72h36.15c-.6-14.71-.62-23.78,6.41-54a106,106,0,0,0-15.35-2,115.24,115.24,0,0,0-16.42,0C306.13,310.37,298.14,312,298.14,312Z" style="fill: rgb(38, 50, 56); transform-origin: 321.016px 337.574px;" id="elacnha2xmxts" class="animable"></path><path d="M306.15,273.48c12.94-20.71,51.27-3.73,31.26,16.66C310.66,317.39,306.15,273.48,306.15,273.48Z" style="fill: rgb(38, 50, 56); transform-origin: 324.618px 281.554px;" id="el0vrxuowz1qr" class="animable"></path><path d="M314.71,302.79a7.1,7.1,0,0,1-3.81-1c-8-5-4-26.06-3.84-27a.38.38,0,0,1,.44-.29.37.37,0,0,1,.29.44c0,.21-4.1,21.48,3.5,26.17,3.68,2.27,9.57.31,17.52-5.82a.37.37,0,0,1,.53.07.38.38,0,0,1-.07.52C323.33,300.49,318.45,302.79,314.71,302.79Z" style="fill: rgb(38, 50, 56); transform-origin: 317.666px 288.643px;" id="el6fxyij1s6z8" class="animable"></path><path d="M330.42,267.63c4-12.09,25.43-8.23,17.89,4.64C340.33,285.89,330.42,267.63,330.42,267.63Z" style="fill: rgb(38, 50, 56); transform-origin: 340.162px 268.82px;" id="elus6086xoa4p" class="animable"></path><path d="M328,291.25c-1,5.28-2.07,15,1.63,18.48,0,0-1.45,5.36-11.26,5.36-10.79,0-5.16-5.36-5.16-5.36,5.89-1.41,5.74-5.78,4.72-9.88Z" style="fill: rgb(255, 139, 123); transform-origin: 320.686px 303.17px;" id="eldlgxzp53als" class="animable"></path><path d="M317.59,315.08a15.72,15.72,0,0,1,3.56,5.47c1.89-.67,11.64-6,11.83-11a37.54,37.54,0,0,0-3.94-.83A28,28,0,0,1,317.59,315.08Z" style="fill: rgb(1, 83, 103); transform-origin: 325.285px 314.635px;" id="elxbh6s07qbi" class="animable"></path><path d="M317.59,315.08a22.34,22.34,0,0,0-3.55,5.47,8.42,8.42,0,0,1-3.5-10.67,16.26,16.26,0,0,1,4.5-.77S310.2,312.91,317.59,315.08Z" style="fill: rgb(1, 83, 103); transform-origin: 313.711px 314.83px;" id="ely1ramh35njf" class="animable"></path><g id="el1wmk3w42fuv"><path d="M323.86,294.76l-6,5.09a16.6,16.6,0,0,1,.51,2.91c2.25-.33,5.34-2.8,5.58-5.15A7.86,7.86,0,0,0,323.86,294.76Z" style="opacity: 0.2; transform-origin: 320.95px 298.76px;" class="animable"></path></g><path d="M333.54,281.56c-2.07,8.59-2.76,12.26-7.94,15.94-7.78,5.54-17.87,1.12-18.41-7.92-.48-8.13,3-20.81,12.09-22.76A12.05,12.05,0,0,1,333.54,281.56Z" style="fill: rgb(255, 139, 123); transform-origin: 320.529px 283.241px;" id="elkew98zitm5i" class="animable"></path><path d="M319,280.39c-.13.7-.6,1.21-1.06,1.13s-.74-.72-.61-1.43.6-1.22,1.06-1.13S319.07,279.68,319,280.39Z" style="fill: rgb(38, 50, 56); transform-origin: 318.155px 280.239px;" id="el7rciv4q4nb3" class="animable"></path><path d="M311,279c-.13.71-.6,1.21-1.07,1.13s-.73-.72-.61-1.43.61-1.21,1.07-1.13S311.08,278.26,311,279Z" style="fill: rgb(38, 50, 56); transform-origin: 310.153px 278.85px;" id="elp42n4j2mtai" class="animable"></path><path d="M310.55,277.62l-1.62-.79S309.57,278.31,310.55,277.62Z" style="fill: rgb(38, 50, 56); transform-origin: 309.74px 277.317px;" id="elgoup2n1ad2s" class="animable"></path><path d="M313.85,281.83a19.12,19.12,0,0,1-3.32,4.06,3.08,3.08,0,0,0,2.44.92Z" style="fill: rgb(255, 86, 82); transform-origin: 312.19px 284.324px;" id="ela5dozv9ikyb" class="animable"></path><path d="M316.16,290.14a5.93,5.93,0,0,0,4.14-1.61.22.22,0,0,0,0-.3.21.21,0,0,0-.3,0,5.69,5.69,0,0,1-4.95,1.38.22.22,0,0,0-.25.17.22.22,0,0,0,.17.25A7.46,7.46,0,0,0,316.16,290.14Z" style="fill: rgb(38, 50, 56); transform-origin: 317.578px 289.154px;" id="elbq6jefdc2dp" class="animable"></path><path d="M337.05,284.11c-4.44,7.38-16.31-8.05-18.28-15.51-2.92,1.45-8.9,5.7-9,2.94s10.09-7.54,15.54-6.7S340.1,279,337.05,284.11Z" style="fill: rgb(38, 50, 56); transform-origin: 323.709px 275.401px;" id="elzl35s5vax3h" class="animable"></path><path d="M334.9,288.42a6.45,6.45,0,0,1-3.49,3.48c-2.1.84-3.4-1-3-3.09.33-1.9,1.84-4.63,4-4.57A2.89,2.89,0,0,1,334.9,288.42Z" style="fill: rgb(255, 139, 123); transform-origin: 331.771px 288.174px;" id="elxi5wxneuczh" class="animable"></path><path d="M321.7,277.31a.41.41,0,0,0,.19,0,.43.43,0,0,0,.19-.57,4.18,4.18,0,0,0-3.08-2.31.41.41,0,0,0-.46.37.43.43,0,0,0,.37.47h0a3.33,3.33,0,0,1,2.42,1.85A.4.4,0,0,0,321.7,277.31Z" style="fill: rgb(38, 50, 56); transform-origin: 320.33px 275.874px;" id="elwcvsc13tx7s" class="animable"></path><path d="M309.05,275.92a.48.48,0,0,0,.31-.13,3.37,3.37,0,0,1,2.84-1.09.42.42,0,0,0,.49-.34.41.41,0,0,0-.33-.49,4.21,4.21,0,0,0-3.61,1.33.43.43,0,0,0,0,.6A.42.42,0,0,0,309.05,275.92Z" style="fill: rgb(38, 50, 56); transform-origin: 310.664px 274.88px;" id="elhjstm155xfr" class="animable"></path><path d="M339.08,363.61l.93,3.24c.12.25-.17.51-.59.51H302.21c-.32,0-.59-.16-.61-.37l-.33-3.24c0-.22.26-.41.62-.41h36.6A.66.66,0,0,1,339.08,363.61Z" style="fill: rgb(38, 50, 56); transform-origin: 320.654px 365.349px;" id="elhk0902ud5y" class="animable"></path><path d="M334.17,367.71h1c.19,0,.34-.11.33-.23l-.46-4.2c0-.13-.19-.23-.38-.23h-1c-.2,0-.35.1-.33.23l.46,4.2C333.8,367.6,334,367.71,334.17,367.71Z" style="fill: rgb(1, 83, 103); transform-origin: 334.414px 365.38px;" id="elalvmgm4fone" class="animable"></path><path d="M305,367.71h1c.19,0,.34-.11.33-.23l-.46-4.2c0-.13-.19-.23-.38-.23h-1c-.2,0-.35.1-.33.23l.46,4.2C304.6,367.6,304.77,367.71,305,367.71Z" style="fill: rgb(1, 83, 103); transform-origin: 305.244px 365.38px;" id="el9xzz6pa4whr" class="animable"></path><path d="M319.57,367.71h1c.19,0,.34-.11.33-.23l-.46-4.2c0-.13-.19-.23-.38-.23h-1c-.2,0-.35.1-.33.23l.46,4.2C319.2,367.6,319.37,367.71,319.57,367.71Z" style="fill: rgb(1, 83, 103); transform-origin: 319.814px 365.38px;" id="elzvsqujg6eje" class="animable"></path><path d="M318.54,279l-1.62-.79S317.56,279.72,318.54,279Z" style="fill: rgb(38, 50, 56); transform-origin: 317.73px 278.702px;" id="elmcdu808aiy" class="animable"></path><path d="M348.86,321.27A141.73,141.73,0,0,1,354,336.08a96.07,96.07,0,0,1,3.27,15.56l.21,2,.1,2.09,0,.52v.34l0,.56a7.93,7.93,0,0,1-.46,2.07,9.07,9.07,0,0,1-1.8,2.84,16.84,16.84,0,0,1-3.93,3,31.2,31.2,0,0,1-3.86,1.82,65.81,65.81,0,0,1-15.41,3.86l-1-4.39a110.08,110.08,0,0,0,13.41-5.92,30.89,30.89,0,0,0,2.85-1.78,8.75,8.75,0,0,0,2-1.8c.18-.25.21-.42.18-.38a.32.32,0,0,0-.08.21.19.19,0,0,0,0,.08v-.14l0-.43-.19-1.71-.28-1.74c-.17-1.15-.44-2.34-.67-3.51s-.52-2.35-.85-3.53c-.59-2.36-1.29-4.72-2-7.08-1.5-4.67-3.15-9.44-4.89-14Z" style="fill: rgb(255, 139, 123); transform-origin: 344.35px 346.005px;" id="elbviaqqwybe" class="animable"></path><path d="M345,311.75c3.62,1.1,8,13.58,8,13.58l-14.05,10s-5.12-10.41-3.6-15.09C336.85,315.4,340.82,310.5,345,311.75Z" style="fill: rgb(38, 50, 56); transform-origin: 344.034px 323.441px;" id="elh8ryjlj30zh" class="animable"></path><path d="M331.65,366l-9.6-.6,5.4,7.27s5.66-.77,6.95-4.24Z" style="fill: rgb(255, 139, 123); transform-origin: 328.225px 369.035px;" id="el1jlr3u11969" class="animable"></path><polygon points="315.88 369.62 320.73 375.46 327.45 372.65 322.05 365.38 315.88 369.62" style="fill: rgb(255, 139, 123); transform-origin: 321.665px 370.42px;" id="elco1d8ixuc5w" class="animable"></polygon></g></g><defs>     <filter id="active" height="200%">         <feMorphology in="SourceAlpha" result="DILATED" operator="dilate" radius="2"></feMorphology>                <feFlood flood-color="#32DFEC" flood-opacity="1" result="PINK"></feFlood>        <feComposite in="PINK" in2="DILATED" operator="in" result="OUTLINE"></feComposite>        <feMerge>            <feMergeNode in="OUTLINE"></feMergeNode>            <feMergeNode in="SourceGraphic"></feMergeNode>        </feMerge>    </filter>    <filter id="hover" height="200%">        <feMorphology in="SourceAlpha" result="DILATED" operator="dilate" radius="2"></feMorphology>                <feFlood flood-color="#ff0000" flood-opacity="0.5" result="PINK"></feFlood>        <feComposite in="PINK" in2="DILATED" operator="in" result="OUTLINE"></feComposite>        <feMerge>            <feMergeNode in="OUTLINE"></feMergeNode>            <feMergeNode in="SourceGraphic"></feMergeNode>        </feMerge>            <feColorMatrix type="matrix" values="0   0   0   0   0                0   1   0   0   0                0   0   0   0   0                0   0   0   1   0 "></feColorMatrix>    </filter></defs><defs><clipPath id="freepik--clip-path--inject-66"><circle cx="323.66" cy="139.98" r="54.82" style="fill:none"></circle></clipPath><clipPath id="freepik--clip-path-2--inject-66"><circle cx="150.92" cy="222.33" r="54.82" style="fill:none"></circle></clipPath><clipPath id="freepik--clip-path-3--inject-66"><circle cx="323.66" cy="304.67" r="54.82" style="fill:none"></circle></clipPath></defs></svg>